# xmcd CD database file
#
# Track frame offsets:
#	150
#	14338
#	28728
#	44619
#	54229
#	69259
#	84406
#	101912
#	113472
#	131312
#
# Disc length: 1950 seconds
#
# Revision: 1
# Processed by: cddbd v1.5.2PL0 Copyright (c) Steve Scherf et al.
# Submitted via: Feurio! 1.68 - http://www.feurio.com
#
DISCID=77079c0a
DTITLE=Abatuque - Ele nos libertou
DYEAR=2006
DGENRE=Brasileira
TTITLE0=Valeu
TTITLE1=Ansiedade
TTITLE2=Rolo Holístico
TTITLE3=Ele nos libertou
TTITLE4=Falar de amar
TTITLE5=Meu grande amor
TTITLE6=Meditando em Seu amor
TTITLE7=Como vai a sua vida
TTITLE8=Razão de viver
TTITLE9=Nova criatura
EXTD=
EXTT0=
EXTT1=
EXTT2=
EXTT3=
EXTT4=
EXTT5=
EXTT6=
EXTT7=
EXTT8=
EXTT9=
PLAYORDER=
